# xmcd
#
# Track frame offsets:
#	150
#	15076
#	33784
#	49007
#	71436
#	90082
#	106705
#	121129
#	136662
#	154854
#	169518
#	186789
#	204052
#	221352
#
# Disc length: 3209 seconds
#
# Revision: 1
# Processed by: cddbd v1.5.1PL0 Copyright (c) Steve Scherf et al.
# Submitted via: audiograbber 1.83.01
#
DISCID=940c870e
DTITLE=Julian Thomas - Julian Thomas
DYEAR=2005
DGENRE=Pop
TTITLE0=Me
TTITLE1=All Of My Life
TTITLE2=Lucky Day
TTITLE3=Stuck With You
TTITLE4=Live
TTITLE5=Never Let Her Slip Away
TTITLE6=Little Outta Line
TTITLE7=Have Some Faith
TTITLE8=Mr. Sowbug
TTITLE9=Poetry
TTITLE10=Floating
TTITLE11=Seize The Day
TTITLE12=Walking In Memphis
TTITLE13=My Friend
EXTD=
EXTT0=
EXTT1=
EXTT2=
EXTT3=
EXTT4=
EXTT5=
EXTT6=
EXTT7=
EXTT8=
EXTT9=
EXTT10=
EXTT11=
EXTT12=
EXTT13=
PLAYORDER=
